# AST/ASF file generated using VICON BodyLanguage
# -----------------------------------------------
:version 1.10
:name VICON
:units
  mass 1.0
  length 0.45
  angle deg
:documentation
   .ast/.asf automatically generated from VICON data using
   VICON BodyBuilder and BodyLanguage model FoxedUp or BRILLIANT.MOD
:root
   order TX TY TZ RX RY RZ
   axis XYZ
   position 0 0 0  
   orientation 0 0 0 
:bonedata
  begin
     id 1 
     name lhipjoint
     direction 0.440178 -0.822639 0.359871 
     length 2.53113 
     axis 0 0 0  XYZ
  end
  begin
     id 2 
     name lfemur
     direction 0.34202 -0.939693 0  
     length 7.88132  
     axis 0 0 20  XYZ
    dof rx ry rz
    limits (-160.0 20.0)
           (-70.0 70.0)
           (-60.0 70.0)
  end
  begin
     id 3 
     name ltibia
     direction 0.34202 -0.939693 0   
     length 8.43783   
     axis 0 0 20   XYZ
    dof rx
    limits (-10.0 170.0)
  end
  begin
     id 4 
     name lfoot
     direction 0.0886351 -0.243523 0.965837   
     length 2.63414   
     axis -90 7.62852e-016 20   XYZ
    dof rx rz
    limits (-45.0 90.0)
           (-70.0 20.0)
  end
  begin
     id 5 
     name ltoes
     direction 1.53703e-011 -4.21717e-011 1   
     length 1.31427   
     axis -90 7.62852e-016 20   XYZ
    dof rx
    limits (-90.0 20.0)
  end
  begin
     id 6 
     name rhipjoint
     direction -0.399779 -0.839773 0.367367   
     length 2.47948  
     axis 0 0 0  XYZ 
  end
  begin
     id 7 
     name rfemur
     direction -0.34202 -0.939693 0   
     length 7.74806   
     axis 0 0 -20   XYZ
    dof rx ry rz
    limits (-160.0 20.0)
           (-70.0 70.0)
           (-70.0 60.0)
  end
  begin
     id 8 
     name rtibia
     direction -0.34202 -0.939693 0   
     length 8.74432   
     axis 0 0 -20   XYZ
    dof rx
    limits (-10.0 170.0)
 end
 begin
     id 9 
     name rfoot
     direction -0.108514 -0.298139 0.948334   
     length 2.66102  
     axis -90 -7.62852e-016 -20   XYZ
    dof rx rz
    limits (-45.0 90.0)
           (-20.0 70.0)
  end
  begin
     id 10 
     name rtoes
     direction -1.53392e-011 -4.22077e-011 1   
     length 1.31983   
     axis -90 -7.62852e-016 -20   XYZ
    dof rx
    limits (-90.0 20.0)
  end
  begin
     id 11 
     name lowerback
     direction 0.0113257 0.999866 0.0118602   
     length 2.58694   
     axis 0 0 0   XYZ
    dof rx ry rz
    limits (-20.0 45.0)
           (-30.0 30.0)
           (-30.0 30.0)
  end
  begin
     id 12 
     name upperback
     direction -0.0164747 0.995193 -0.0965375   
     length 2.52368   
     axis 0 0 0   XYZ
    dof rx ry rz
    limits (-20.0 45.0)
           (-30.0 30.0)
           (-30.0 30.0)
  end
  begin
     id 13 
     name thorax
     direction -0.0194301 0.99433 -0.104552   
     length 2.56099   
     axis 0 0 0   XYZ
    dof rx ry rz
    limits (-20.0 45.0)
           (-30.0 30.0)
           (-30.0 30.0)
  end
  begin
     id 14 
     name lowerneck
     direction 0.0148543 0.995587 -0.092657   
     length 1.71582   
     axis 0 0 0   XYZ
    dof rx ry rz
    limits (-20.0 45.0)
           (-30.0 30.0)
           (-30.0 30.0)
  end
  begin
     id 15 
     name upperneck
     direction -0.0135467 0.993656 -0.111639   
     length 1.68937   
     axis 0 0 0   XYZ
    dof rx ry rz
    limits (-20.0 45.0)
           (-30.0 30.0)
           (-30.0 30.0)
  end
  begin
     id 16
     name head
     direction -0.00615349 0.999547 -0.029448  
     length 1.7462  
     axis 0 0 0   XYZ
    dof rx ry rz
    limits (-20.0 45.0)
           (-30.0 30.0)
           (-30.0 30.0)
  end
  begin
     id 17 
     name lclavicle
     direction 0.988267 0.149885 0.0293713  
     length 4.47222  
     axis 0 0 0   XYZ
    dof ry rz
    limits (-20.0 10.0)
           (0.0 20.0)
  end
  begin
     id 18 
     name lhumerus
     direction 1 -4.48986e-011 -1.14833e-027   
     length 5.37148   
     axis 180 -30 -90   XYZ
    dof rx ry rz
    limits (-60.0 90.0)
           (-90.0 90.0)
           (-90.0 90.0)
  end
  begin
     id 19
     name lradius
     direction 0.999998 0.00170963 -0.000987055   
     length 3.94212   
     axis 180 -30 -90   XYZ
    dof rx
    limits (-10.0 170.0)
  end
  begin
     id 20
     name lwrist
     direction 0.999998 7.53149e-005 -0.00194706   
     length 1.97106   
     axis 4.65056e-015 90 90   XYZ
    dof ry
    limits (-180.0 0.0)
 end
  begin
     id 21 
     name lhand
     direction 1 -4.48973e-011 -1.31746e-026   
     length 1.17917   
     axis 8.4065e-015 90 90   XYZ
    dof rx rz
    limits (-90.0 90.0)
           (-45.0 45.0)
  end
  begin
     id 22 
     name lfingers
     direction 1 -4.49107e-011 -2.63492e-026   
     length 0.950679   
     axis 1.6813e-014 90 90   XYZ
    dof rx
    limits (0.0 90.0)
  end
  begin
     id 23
     name lthumb
     direction 0.707107 -6.35048e-011 0.707107   
     length 1.36499   
     axis -90 45 2.85299e-015   XYZ
    dof rx rz
    limits (-45.0 45.0)
           (-45.0 45.0)
  end
  begin
     id 24 
     name rclavicle
     direction -0.996699 0.0642895 -0.0495725   
     length 4.62611  
     axis 0 0 0   XYZ 
    dof ry rz
    limits (-10.0 20.0)
           (-20.0 0.0)
  end
  begin
     id 25 
     name rhumerus
     direction -1 -4.48919e-011 -2.41059e-027  
     length 5.4981   
     axis 180 30 90   XYZ
    dof rx ry rz
    limits (-90.0 60.0)
           (-90.0 90.0)
           (-90.0 90.0)
  end
  begin
     id 26 
     name rradius
     direction -0.999999 0.00118101 -0.000681858   
     length 3.48381   
     axis 180 30 90   XYZ
    dof rx
    limits (-10.0 170.0)
  end
  begin
     id 27 
     name rwrist
     direction -0.999999 0.000321823 -0.00132288   
     length 1.7419   
     axis 4.65056e-015 -90 -90   XYZ
    dof ry
    limits (-180.0 0.0)
  end
  begin
     id 28
     name rhand
     direction -1 -4.49022e-011 -1.31746e-026   
     length 1.34932   
     axis 8.4065e-015 -90 -90   XYZ
    dof rx rz
    limits (-90.0 90.0)
           (-45.0 45.0)
  end
  begin
     id 29
     name rfingers
     direction -1 -4.49178e-011 -2.63492e-026   
     length 1.08785   
     axis 1.6813e-014 -90 -90   XYZ
    dof rx
    limits (0.0 90.0)
  end
  begin
     id 30
     name rthumb
     direction -0.707107 -6.34713e-011 0.707107   
     length 1.56195   
     axis -90 -45 -2.85299e-015   XYZ
    dof rx rz
    limits (-45.0 45.0)
           (-45.0 45.0)
  end
:hierarchy
  begin
    root lhipjoint rhipjoint lowerback
    lhipjoint lfemur
    lfemur ltibia
    ltibia lfoot
    lfoot ltoes
    rhipjoint rfemur
    rfemur rtibia
    rtibia rfoot
    rfoot rtoes
    lowerback upperback
    upperback thorax
    thorax lowerneck lclavicle rclavicle
    lowerneck upperneck
    upperneck head
    lclavicle lhumerus
    lhumerus lradius
    lradius lwrist
    lwrist lhand lthumb
    lhand lfingers
    rclavicle rhumerus
    rhumerus rradius
    rradius rwrist
    rwrist rhand rthumb
    rhand rfingers
  end

#!OML:ASF X:\für Bonn\!DataBase\2005_08_10_Bjorn_Final\c3d\bjorn.ASF
:FULLY-SPECIFIED
:DEGREES
16
root 0.414306 19.0267 1.81215 -172.862 -2.63777 178.926
lowerback 0.195483 1.367 3.76848
upperback 5.86102 1.42779 -0.804233
thorax 6.10593 0.79076 -2.888
lowerneck -19.6507 -1.86702 0.563558
upperneck 14.0839 -2.37566 -1.82963
head 7.5218 -1.29069 -0.981938
rclavicle -1.36167e-014 2.5842e-015
rhumerus 82.2696 2.37209 -73.3208
rradius 7.50983
rwrist 48.7121
rhand -8.09914 5.92497
rfingers 7.12502
rthumb 17.8134 -23.2792
lclavicle -1.36167e-014 2.5842e-015
lhumerus 84.131 -7.98084 74.4827
lradius 6.09463
lwrist -50.208
lhand -13.1853 -7.50061
lfingers 7.12502
lthumb 12.9145 22.0798
rfemur -18.6758 -9.10592 17.1929
rtibia 37.59
rfoot -21.7763 11.6091
rtoes -16.3703
lfemur -16.9029 5.10067 -20.5481
ltibia 35.5199
lfoot -19.8063 -0.561319
ltoes -13.59
17
root 0.40409 18.9985 1.84862 -172.869 -2.49062 178.858
lowerback 0.751963 1.40717 3.7768
upperback 5.91881 1.48564 -0.875921
thorax 5.85581 0.810279 -2.97483
lowerneck -19.6109 -1.86819 0.664795
upperneck 13.8467 -2.40166 -1.84125
head 7.43471 -1.29767 -1.00172
rclavicle 3.16068e-014 -1.09332e-014
rhumerus 82.4026 2.32142 -73.3132
rradius 7.47956
rwrist 48.6676
rhand -8.30613 5.95318
rfingers 7.12502
rthumb 17.6143 -23.2689
lclavicle 3.16068e-014 -1.09332e-014
lhumerus 84.1476 -8.09088 74.3705
lradius 6.37675
lwrist -49.543
lhand -13.2552 -7.55334
lfingers 7.12502
lthumb 12.8472 22.0313
rfemur -19.4003 -8.84804 17.1141
rtibia 38.667
rfoot -22.0175 11.3327
rtoes -17.1454
lfemur -17.4777 4.60033 -20.7247
ltibia 36.4124
lfoot -20.0341 0.144038
ltoes -14.0691
18
root 0.393015 18.9652 1.88683 -172.894 -2.33461 178.791
lowerback 1.33429 1.45007 3.77701
upperback 5.99371 1.54354 -0.930083
thorax 5.60925 0.827811 -3.04012
lowerneck -19.5404 -1.87508 0.717796
upperneck 13.5325 -2.42912 -1.81333
head 7.31837 -1.30419 -0.999524
rclavicle 3.24019e-014 -4.57205e-015
rhumerus 82.5199 2.25626 -73.2713
rradius 7.47803
rwrist 48.7217
rhand -8.56571 6.01754
rfingers 7.12502
rthumb 17.3644 -23.2268
lclavicle 3.24019e-014 -4.57205e-015
lhumerus 84.1242 -8.21674 74.2908
lradius 6.69643
lwrist -49.1199
lhand -13.4724 -7.56053
lfingers 7.12502
lthumb 12.6378 22.0371
rfemur -20.1631 -8.63496 17.0285
rtibia 39.835
rfoot -22.2674 11.1036
rtoes -17.9726
lfemur -18.0941 4.149 -20.908
ltibia 37.4126
lfoot -20.3317 0.887509
ltoes -14.7818
19
root 0.381701 18.9278 1.9251 -172.948 -2.16504 178.689
lowerback 1.96426 1.49125 3.73913
upperback 6.06739 1.59967 -1.00024
thorax 5.33407 0.841621 -3.10269
lowerneck -19.4228 -1.87538 0.814527
upperneck 13.1952 -2.45303 -1.82557
head 7.18587 -1.31109 -1.0163
rclavicle -1.35174e-014 5.36719e-015
rhumerus 82.6147 2.20561 -73.247
rradius 7.48012
rwrist 48.8049
rhand -8.81042 6.09105
rfingers 7.12502
rthumb 17.1289 -23.1739
lclavicle -1.35174e-014 5.36719e-015
lhumerus 84.0735 -8.32901 74.1951
lradius 6.99072
lwrist -48.89
lhand -13.8737 -7.4913
lfingers 7.12502
lthumb 12.2509 22.1299
rfemur -20.9391 -8.40343 16.894
rtibia 41.0806
rfoot -22.5034 10.8906
rtoes -18.6717
lfemur -18.7428 3.67947 -21.1275
ltibia 38.5251
lfoot -20.6422 1.58622
ltoes -15.0298
20
root 0.371503 18.885 1.9655 -173.025 -2.02146 178.617
lowerback 2.6381 1.53127 3.73234
upperback 6.13732 1.65264 -1.05846
thorax 5.03178 0.85382 -3.17228
lowerneck -19.2685 -1.88554 0.89139
upperneck 12.8348 -2.48867 -1.81648
head 7.04046 -1.32296 -1.02344
rclavicle 1.04362e-014 -7.55382e-015
rhumerus 82.6569 2.14905 -73.2183
rradius 7.53529
rwrist 48.9
rhand -9.02925 6.14076
rfingers 7.12502
rthumb 16.9183 -23.1423
lclavicle 1.04362e-014 -7.55382e-015
lhumerus 84.0569 -8.44987 74.1069
lradius 7.23475
lwrist -48.7252
lhand -14.3255 -7.42663
lfingers 7.12502
lthumb 11.8153 22.2201
rfemur -21.744 -8.16943 16.8001
rtibia 42.4101
rfoot -22.7865 10.6427
rtoes -19.5384
lfemur -19.4475 3.23096 -21.2998
ltibia 39.7711
lfoot -20.9377 2.25031
ltoes -15.4756
21
root 0.361823 18.8367 2.00596 -173.056 -1.85965 178.569
lowerback 3.25717 1.58328 3.74626
upperback 6.20035 1.72097 -1.12858
thorax 4.75722 0.875896 -3.26551
lowerneck -19.1308 -1.8883 1.02446
upperneck 12.472 -2.52485 -1.83412
head 6.89637 -1.33529 -1.04855
rclavicle -1.49089e-014 2.98177e-015
rhumerus 82.6712 2.06475 -73.2161
rradius 7.6282
rwrist 48.8976
rhand -9.16117 6.18476
rfingers 7.12502
rthumb 16.7913 -23.1092
lclavicle -1.49089e-014 2.98177e-015
lhumerus 84.1707 -8.53734 73.9787
lradius 7.33838
lwrist -48.7166
lhand -14.8613 -7.37627
lfingers 7.12502
lthumb 11.2985 22.2994
rfemur -22.6462 -7.88767 16.7321
rtibia 43.8172
rfoot -23.0657 10.4096
rtoes -20.2647
lfemur -20.2866 2.83221 -21.4547
ltibia 41.1553
lfoot -21.1866 2.87492
ltoes -15.8156
22
root 0.353731 18.7823 2.04843 -173.076 -1.7387 178.493
lowerback 3.87837 1.61657 3.70338
upperback 6.26097 1.76235 -1.17688
thorax 4.47444 0.88085 -3.30553
lowerneck -18.9792 -1.89115 1.09814
upperneck 12.1066 -2.54868 -1.83343
head 6.75088 -1.34345 -1.05651
rclavicle -1.23246e-014 7.7526e-015
rhumerus 82.6849 1.99757 -73.1783
rradius 7.74111
rwrist 48.7892
rhand -9.29513 6.29378
rfingers 7.12502
rthumb 16.6623 -23.011
lclavicle -1.23246e-014 7.7526e-015
lhumerus 84.3288 -8.57838 73.8795
lradius 7.39778
lwrist -48.7021
lhand -15.3883 -7.31645
lfingers 7.12502
lthumb 10.7902 22.3864
rfemur -23.6083 -7.62826 16.6449
rtibia 45.3039
rfoot -23.3362 10.1608
rtoes -20.8424
lfemur -21.2261 2.43451 -21.6269
ltibia 42.6861
lfoot -21.3704 3.42471
ltoes -16.1515
23
root 0.346638 18.7223 2.09218 -173.059 -1.63851 178.437
lowerback 4.42059 1.63993 3.63567
upperback 6.35822 1.78173 -1.18983
thorax 4.27153 0.873556 -3.29343
lowerneck -18.9654 -1.89077 1.17382
upperneck 11.7854 -2.5636 -1.87397
head 6.64236 -1.35173 -1.07953
rclavicle -2.43511e-014 9.54166e-015
rhumerus 82.7438 1.95583 -73.1154
rradius 7.93255
rwrist 48.6237
rhand -9.38493 6.40965
rfingers 7.12502
rthumb 16.5759 -22.9024
lclavicle -2.43511e-014 9.54166e-015
lhumerus 84.5442 -8.55801 73.7973
lradius 7.44088
lwrist -48.8332
lhand -16.0145 -7.20244
lfingers 7.12502
lthumb 10.1862 22.531
rfemur -24.6644 -7.39145 16.5892
rtibia 46.8665
rfoot -23.6244 9.88899
rtoes -21.6702
lfemur -22.304 2.04351 -21.7726
ltibia 44.3646
lfoot -21.5751 3.93407
ltoes -16.4386
24
root 0.339254 18.6548 2.1364 -173.051 -1.54575 178.358
lowerback 4.96525 1.6776 3.5878
upperback 6.46721 1.81803 -1.24168
thorax 4.08438 0.876062 -3.33346
lowerneck -18.9578 -1.89687 1.27559
upperneck 11.4617 -2.60005 -1.87901
head 6.53402 -1.36624 -1.09758
rclavicle -8.94531e-015 -1.39149e-014
rhumerus 82.8327 1.82481 -73.0747
rradius 8.09856
rwrist 48.424
rhand -9.45042 6.49972
rfingers 7.12502
rthumb 16.5128 -22.8176
lclavicle -8.94531e-015 -1.39149e-014
lhumerus 84.8027 -8.56443 73.6732
lradius 7.472
lwrist -48.8857
lhand -16.6467 -7.0681
lfingers 7.12502
lthumb 9.57623 22.6943
rfemur -25.7381 -7.15226 16.4997
rtibia 48.4945
rfoot -23.9163 9.68137
rtoes -22.2183
lfemur -23.4529 1.70237 -21.9446
ltibia 46.1853
lfoot -21.7824 4.45413
ltoes -16.9731
25
root 0.332402 18.5814 2.18304 -173.053 -1.48965 178.318
lowerback 5.57675 1.68889 3.5797
upperback 6.57561 1.81804 -1.27256
thorax 3.85794 0.859687 -3.37571
lowerneck -19.1714 -1.90385 1.30731
upperneck 11.3649 -2.63019 -1.81928
head 6.53743 -1.37497 -1.08834
rclavicle 2.28602e-015 -2.38542e-015
rhumerus 82.9904 1.71758 -73.0265
rradius 8.20514
rwrist 48.2482
rhand -9.57932 6.61836
rfingers 7.12502
rthumb 16.3887 -22.7093
lclavicle 2.28602e-015 -2.38542e-015
lhumerus 85.0657 -8.52383 73.55
lradius 7.4752
lwrist -49.0272
lhand -17.2733 -6.92535
lfingers 7.12502
lthumb 8.97167 22.8639
rfemur -26.8436 -6.96572 16.4505
rtibia 50.1794
rfoot -24.1984 9.50042
rtoes -22.7777
lfemur -24.6769 1.36975 -22.0713
ltibia 48.1424
lfoot -21.9747 4.93355
ltoes -17.5833
26
root 0.325522 18.4999 2.23172 -173.083 -1.44715 178.263
lowerback 6.25886 1.70316 3.58222
upperback 6.695 1.81955 -1.32328
thorax 3.60638 0.84258 -3.44645
lowerneck -19.5523 -1.92348 1.32864
upperneck 11.3957 -2.68293 -1.71365
head 6.60985 -1.39064 -1.06876
rclavicle 2.08724e-015 -9.93923e-016
rhumerus 83.1746 1.5666 -72.9908
rradius 8.33191
rwrist 48.1284
rhand -9.61889 6.67683
rfingers 7.12502
rthumb 16.3506 -22.6539
lclavicle 2.08724e-015 -9.93923e-016
lhumerus 85.3776 -8.50224 73.4069
lradius 7.47021
lwrist -49.1102
lhand -17.8585 -6.75069
lfingers 7.12502
lthumb 8.40689 23.062
rfemur -27.9398 -6.78943 16.3731
rtibia 51.913
rfoot -24.48 9.36616
rtoes -23.2498
lfemur -25.9362 1.11476 -22.2231
ltibia 50.2127
lfoot -22.1582 5.43738
ltoes -18.7211
27
root 0.318438 18.4124 2.28174 -173.159 -1.4378 178.247
lowerback 7.01332 1.70944 3.6163
upperback 6.79756 1.81247 -1.34022
thorax 3.2977 0.819825 -3.50156
lowerneck -19.9432 -1.9409 1.35365
upperneck 11.5598 -2.72162 -1.68346
head 6.72636 -1.40536 -1.07445
rclavicle 1.86858e-014 3.77691e-015
rhumerus 83.3405 1.40692 -72.9116
rradius 8.41763
rwrist 48.1282
rhand -9.74631 6.77305
rfingers 7.12502
rthumb 16.2279 -22.5678
lclavicle 1.86858e-014 3.77691e-015
lhumerus 85.6463 -8.4658 73.3029
lradius 7.45794
lwrist -49.1832
lhand -18.3141 -6.63785
lfingers 7.12502
lthumb 7.96717 23.192
rfemur -29.0143 -6.65694 16.323
rtibia 53.6938
rfoot -24.6932 9.32204
rtoes -23.5495
lfemur -27.2085 0.849889 -22.3293
ltibia 52.383
lfoot -22.3661 5.93404
ltoes -19.802
28
root 0.311241 18.3171 2.33167 -173.266 -1.4364 178.231
lowerback 7.7795 1.70348 3.65954
upperback 6.92393 1.7844 -1.36301
thorax 3.00834 0.785338 -3.5672
lowerneck -20.4053 -1.9554 1.42204
upperneck 11.7915 -2.76244 -1.69595
head 6.87543 -1.42261 -1.10316
rclavicle -6.65929e-015 1.76918e-014
rhumerus 83.5707 1.24047 -72.8465
rradius 8.4644
rwrist 48.2784
rhand -9.84732 6.89574
rfingers 7.12502
rthumb 16.1307 -22.453
lclavicle -6.65929e-015 1.76918e-014
lhumerus 85.9362 -8.40832 73.1768
lradius 7.45
lwrist -49.2029
lhand -18.7045 -6.55605
lfingers 7.12502
lthumb 7.59038 23.2877
rfemur -30.0757 -6.55166 16.2672
rtibia 55.5286
rfoot -24.9543 9.27336
rtoes -24.0211
lfemur -28.4874 0.606789 -22.4348
ltibia 54.6255
lfoot -22.521 6.4701
ltoes -21.24
29
root 0.304356 18.2119 2.3802 -173.401 -1.41257 178.217
lowerback 8.54712 1.71775 3.69365
upperback 7.06711 1.77856 -1.38336
thorax 2.73944 0.760265 -3.62595
lowerneck -20.7551 -1.97761 1.5146
upperneck 11.8357 -2.81596 -1.74492
head 6.94377 -1.44948 -1.14559
rclavicle 3.05134e-014 -1.09332e-014
rhumerus 83.7709 1.0408 -72.7731
rradius 8.59865
rwrist 48.4976
rhand -9.81584 6.93907
rfingers 7.12502
rthumb 16.161 -22.4072
lclavicle 3.05134e-014 -1.09332e-014
lhumerus 86.2269 -8.378 73.059
lradius 7.50469
lwrist -49.2793
lhand -18.9816 -6.45202
lfingers 7.12502
lthumb 7.32291 23.4013
rfemur -31.1416 -6.42684 16.2008
rtibia 57.426
rfoot -25.1932 9.30139
rtoes -24.1992
lfemur -29.7611 0.405919 -22.5293
ltibia 56.9306
lfoot -22.7427 6.8937
ltoes -22.2809
30
root 0.297617 18.0969 2.42841 -173.514 -1.39825 178.182
lowerback 9.29392 1.727 3.7219
upperback 7.20074 1.76591 -1.42423
thorax 2.47374 0.732011 -3.70199
lowerneck -20.9004 -1.9982 1.58556
upperneck 11.5828 -2.87832 -1.69332
head 6.88297 -1.47415 -1.14626
rclavicle 5.05907e-014 -2.38542e-015
rhumerus 83.9657 0.849552 -72.7299
rradius 8.73667
rwrist 48.8532
rhand -9.73903 7.00384
rfingers 7.12502
rthumb 16.2349 -22.3364
lclavicle 5.05907e-014 -2.38542e-015
lhumerus 86.5165 -8.35353 72.9172
lradius 7.58785
lwrist -49.3505
lhand -19.1202 -6.39195
lfingers 7.12502
lthumb 7.18914 23.4659
rfemur -32.2675 -6.33059 16.1019
rtibia 59.3994
rfoot -25.4711 9.41304
rtoes -24.412
lfemur -31.0904 0.177791 -22.6246
ltibia 59.2795
lfoot -23.0127 7.13901
ltoes -22.7264
